<?xml version="1.0" encoding="utf-8"?>
<svg xmlns="http://www.w3.org/2000/svg" xmlns:xlink="http://www.w3.org/1999/xlink" width="600" height="400" viewBox="0 0 2400 1600">
<defs>
  <clipPath id="clip6400">
    <rect x="0" y="0" width="2400" height="1600"/>
  </clipPath>
</defs>
<polygon clip-path="url(#clip6400)" points="
0,1600 2400,1600 2400,0 0,0 
  " fill="#ffffff" fill-rule="evenodd" fill-opacity="1"/>
<defs>
  <clipPath id="clip6401">
    <rect x="480" y="0" width="1681" height="1600"/>
  </clipPath>
</defs>
<polygon clip-path="url(#clip6400)" points="
242.516,1425.62 2352.76,1425.62 2352.76,121.675 242.516,121.675 
  " fill="#ffffff" fill-rule="evenodd" fill-opacity="1"/>
<defs>
  <clipPath id="clip6402">
    <rect x="242" y="121" width="2111" height="1305"/>
  </clipPath>
</defs>
<polyline clip-path="url(#clip6402)" style="stroke:#000000; stroke-width:2; stroke-opacity:0.1; fill:none" points="
  483.221,1425.62 483.221,121.675 
  "/>
<polyline clip-path="url(#clip6402)" style="stroke:#000000; stroke-width:2; stroke-opacity:0.1; fill:none" points="
  935.674,1425.62 935.674,121.675 
  "/>
<polyline clip-path="url(#clip6402)" style="stroke:#000000; stroke-width:2; stroke-opacity:0.1; fill:none" points="
  1388.13,1425.62 1388.13,121.675 
  "/>
<polyline clip-path="url(#clip6402)" style="stroke:#000000; stroke-width:2; stroke-opacity:0.1; fill:none" points="
  1840.58,1425.62 1840.58,121.675 
  "/>
<polyline clip-path="url(#clip6402)" style="stroke:#000000; stroke-width:2; stroke-opacity:0.1; fill:none" points="
  2293.03,1425.62 2293.03,121.675 
  "/>
<polyline clip-path="url(#clip6402)" style="stroke:#000000; stroke-width:2; stroke-opacity:0.1; fill:none" points="
  242.516,1397.02 2352.76,1397.02 
  "/>
<polyline clip-path="url(#clip6402)" style="stroke:#000000; stroke-width:2; stroke-opacity:0.1; fill:none" points="
  242.516,1086.65 2352.76,1086.65 
  "/>
<polyline clip-path="url(#clip6402)" style="stroke:#000000; stroke-width:2; stroke-opacity:0.1; fill:none" points="
  242.516,776.267 2352.76,776.267 
  "/>
<polyline clip-path="url(#clip6402)" style="stroke:#000000; stroke-width:2; stroke-opacity:0.1; fill:none" points="
  242.516,465.888 2352.76,465.888 
  "/>
<polyline clip-path="url(#clip6402)" style="stroke:#000000; stroke-width:2; stroke-opacity:0.1; fill:none" points="
  242.516,155.509 2352.76,155.509 
  "/>
<polyline clip-path="url(#clip6400)" style="stroke:#000000; stroke-width:4; stroke-opacity:1; fill:none" points="
  242.516,1425.62 2352.76,1425.62 
  "/>
<polyline clip-path="url(#clip6400)" style="stroke:#000000; stroke-width:4; stroke-opacity:1; fill:none" points="
  242.516,1425.62 242.516,121.675 
  "/>
<polyline clip-path="url(#clip6400)" style="stroke:#000000; stroke-width:4; stroke-opacity:1; fill:none" points="
  483.221,1425.62 483.221,1406.06 
  "/>
<polyline clip-path="url(#clip6400)" style="stroke:#000000; stroke-width:4; stroke-opacity:1; fill:none" points="
  935.674,1425.62 935.674,1406.06 
  "/>
<polyline clip-path="url(#clip6400)" style="stroke:#000000; stroke-width:4; stroke-opacity:1; fill:none" points="
  1388.13,1425.62 1388.13,1406.06 
  "/>
<polyline clip-path="url(#clip6400)" style="stroke:#000000; stroke-width:4; stroke-opacity:1; fill:none" points="
  1840.58,1425.62 1840.58,1406.06 
  "/>
<polyline clip-path="url(#clip6400)" style="stroke:#000000; stroke-width:4; stroke-opacity:1; fill:none" points="
  2293.03,1425.62 2293.03,1406.06 
  "/>
<polyline clip-path="url(#clip6400)" style="stroke:#000000; stroke-width:4; stroke-opacity:1; fill:none" points="
  242.516,1397.02 274.17,1397.02 
  "/>
<polyline clip-path="url(#clip6400)" style="stroke:#000000; stroke-width:4; stroke-opacity:1; fill:none" points="
  242.516,1086.65 274.17,1086.65 
  "/>
<polyline clip-path="url(#clip6400)" style="stroke:#000000; stroke-width:4; stroke-opacity:1; fill:none" points="
  242.516,776.267 274.17,776.267 
  "/>
<polyline clip-path="url(#clip6400)" style="stroke:#000000; stroke-width:4; stroke-opacity:1; fill:none" points="
  242.516,465.888 274.17,465.888 
  "/>
<polyline clip-path="url(#clip6400)" style="stroke:#000000; stroke-width:4; stroke-opacity:1; fill:none" points="
  242.516,155.509 274.17,155.509 
  "/>
<g clip-path="url(#clip6400)">
<text style="fill:#000000; fill-opacity:1; font-family:Arial,Helvetica Neue,Helvetica,sans-serif; font-size:48px; text-anchor:middle;" transform="rotate(0, 483.221, 1479.62)" x="483.221" y="1479.62">0.0</text>
</g>
<g clip-path="url(#clip6400)">
<text style="fill:#000000; fill-opacity:1; font-family:Arial,Helvetica Neue,Helvetica,sans-serif; font-size:48px; text-anchor:middle;" transform="rotate(0, 935.674, 1479.62)" x="935.674" y="1479.62">2.5</text>
</g>
<g clip-path="url(#clip6400)">
<text style="fill:#000000; fill-opacity:1; font-family:Arial,Helvetica Neue,Helvetica,sans-serif; font-size:48px; text-anchor:middle;" transform="rotate(0, 1388.13, 1479.62)" x="1388.13" y="1479.62">5.0</text>
</g>
<g clip-path="url(#clip6400)">
<text style="fill:#000000; fill-opacity:1; font-family:Arial,Helvetica Neue,Helvetica,sans-serif; font-size:48px; text-anchor:middle;" transform="rotate(0, 1840.58, 1479.62)" x="1840.58" y="1479.62">7.5</text>
</g>
<g clip-path="url(#clip6400)">
<text style="fill:#000000; fill-opacity:1; font-family:Arial,Helvetica Neue,Helvetica,sans-serif; font-size:48px; text-anchor:middle;" transform="rotate(0, 2293.03, 1479.62)" x="2293.03" y="1479.62">10.0</text>
</g>
<g clip-path="url(#clip6400)">
<text style="fill:#000000; fill-opacity:1; font-family:Arial,Helvetica Neue,Helvetica,sans-serif; font-size:48px; text-anchor:end;" transform="rotate(0, 218.516, 1414.52)" x="218.516" y="1414.52">0.00</text>
</g>
<g clip-path="url(#clip6400)">
<text style="fill:#000000; fill-opacity:1; font-family:Arial,Helvetica Neue,Helvetica,sans-serif; font-size:48px; text-anchor:end;" transform="rotate(0, 218.516, 1104.15)" x="218.516" y="1104.15">0.25</text>
</g>
<g clip-path="url(#clip6400)">
<text style="fill:#000000; fill-opacity:1; font-family:Arial,Helvetica Neue,Helvetica,sans-serif; font-size:48px; text-anchor:end;" transform="rotate(0, 218.516, 793.767)" x="218.516" y="793.767">0.50</text>
</g>
<g clip-path="url(#clip6400)">
<text style="fill:#000000; fill-opacity:1; font-family:Arial,Helvetica Neue,Helvetica,sans-serif; font-size:48px; text-anchor:end;" transform="rotate(0, 218.516, 483.388)" x="218.516" y="483.388">0.75</text>
</g>
<g clip-path="url(#clip6400)">
<text style="fill:#000000; fill-opacity:1; font-family:Arial,Helvetica Neue,Helvetica,sans-serif; font-size:48px; text-anchor:end;" transform="rotate(0, 218.516, 173.009)" x="218.516" y="173.009">1.00</text>
</g>
<g clip-path="url(#clip6400)">
<text style="fill:#000000; fill-opacity:1; font-family:Arial,Helvetica Neue,Helvetica,sans-serif; font-size:84px; text-anchor:middle;" transform="rotate(0, 1297.64, 73.2)" x="1297.64" y="73.2">Reverse logistic function</text>
</g>
<g clip-path="url(#clip6400)">
<text style="fill:#000000; fill-opacity:1; font-family:Arial,Helvetica Neue,Helvetica,sans-serif; font-size:66px; text-anchor:middle;" transform="rotate(0, 1297.64, 1559.48)" x="1297.64" y="1559.48">Number of cars in cell</text>
</g>
<g clip-path="url(#clip6400)">
<text style="fill:#000000; fill-opacity:1; font-family:Arial,Helvetica Neue,Helvetica,sans-serif; font-size:66px; text-anchor:middle;" transform="rotate(-90, 89.2861, 773.647)" x="89.2861" y="773.647">Acceptable intake</text>
</g>
<polyline clip-path="url(#clip6402)" style="stroke:#009af9; stroke-width:4; stroke-opacity:1; fill:none" points="
  302.24,158.579 304.05,158.61 305.86,158.641 307.67,158.672 309.479,158.704 311.289,158.736 313.099,158.769 314.909,158.801 316.719,158.834 318.528,158.868 
  320.338,158.901 322.148,158.935 323.958,158.969 325.768,159.004 327.578,159.039 329.387,159.075 331.197,159.11 333.007,159.146 334.817,159.183 336.627,159.22 
  338.436,159.257 340.246,159.294 342.056,159.332 343.866,159.371 345.676,159.409 347.485,159.448 349.295,159.488 351.105,159.528 352.915,159.568 354.725,159.609 
  356.535,159.65 358.344,159.691 360.154,159.733 361.964,159.775 363.774,159.818 365.584,159.861 367.393,159.905 369.203,159.949 371.013,159.993 372.823,160.038 
  374.633,160.083 376.442,160.129 378.252,160.175 380.062,160.222 381.872,160.269 383.682,160.317 385.491,160.365 387.301,160.414 389.111,160.463 390.921,160.512 
  392.731,160.563 394.541,160.613 396.35,160.664 398.16,160.716 399.97,160.768 401.78,160.821 403.59,160.874 405.399,160.927 407.209,160.982 409.019,161.036 
  410.829,161.092 412.639,161.147 414.448,161.204 416.258,161.261 418.068,161.318 419.878,161.376 421.688,161.435 423.498,161.494 425.307,161.554 427.117,161.615 
  428.927,161.676 430.737,161.737 432.547,161.8 434.356,161.863 436.166,161.926 437.976,161.99 439.786,162.055 441.596,162.12 443.405,162.187 445.215,162.253 
  447.025,162.321 448.835,162.389 450.645,162.458 452.454,162.527 454.264,162.597 456.074,162.668 457.884,162.739 459.694,162.812 461.504,162.885 463.313,162.958 
  465.123,163.033 466.933,163.108 468.743,163.184 470.553,163.26 472.362,163.338 474.172,163.416 475.982,163.495 477.792,163.575 479.602,163.655 481.411,163.737 
  483.221,163.819 485.031,163.902 486.841,163.985 488.651,164.07 490.461,164.155 492.27,164.242 494.08,164.329 495.89,164.417 497.7,164.506 499.51,164.595 
  501.319,164.686 503.129,164.778 504.939,164.87 506.749,164.963 508.559,165.058 510.368,165.153 512.178,165.249 513.988,165.346 515.798,165.444 517.608,165.543 
  519.417,165.643 521.227,165.744 523.037,165.846 524.847,165.949 526.657,166.053 528.467,166.158 530.276,166.265 532.086,166.372 533.896,166.48 535.706,166.589 
  537.516,166.7 539.325,166.811 541.135,166.924 542.945,167.037 544.755,167.152 546.565,167.268 548.374,167.385 550.184,167.503 551.994,167.622 553.804,167.743 
  555.614,167.865 557.424,167.988 559.233,168.112 561.043,168.237 562.853,168.364 564.663,168.492 566.473,168.621 568.282,168.751 570.092,168.883 571.902,169.016 
  573.712,169.15 575.522,169.285 577.331,169.422 579.141,169.561 580.951,169.7 582.761,169.841 584.571,169.983 586.38,170.127 588.19,170.272 590,170.419 
  591.81,170.567 593.62,170.717 595.43,170.867 597.239,171.02 599.049,171.174 600.859,171.329 602.669,171.486 604.479,171.645 606.288,171.805 608.098,171.966 
  609.908,172.129 611.718,172.294 613.528,172.461 615.337,172.629 617.147,172.798 618.957,172.97 620.767,173.143 622.577,173.317 624.387,173.494 626.196,173.672 
  628.006,173.852 629.816,174.033 631.626,174.217 633.436,174.402 635.245,174.589 637.055,174.777 638.865,174.968 640.675,175.16 642.485,175.355 644.294,175.551 
  646.104,175.749 647.914,175.949 649.724,176.151 651.534,176.355 653.343,176.561 655.153,176.769 656.963,176.979 658.773,177.191 660.583,177.405 662.393,177.621 
  664.202,177.84 666.012,178.06 667.822,178.282 669.632,178.507 671.442,178.734 673.251,178.963 675.061,179.194 676.871,179.427 678.681,179.663 680.491,179.901 
  682.3,180.141 684.11,180.384 685.92,180.629 687.73,180.876 689.54,181.126 691.35,181.378 693.159,181.633 694.969,181.889 696.779,182.149 698.589,182.411 
  700.399,182.675 702.208,182.942 704.018,183.212 705.828,183.484 707.638,183.759 709.448,184.036 711.257,184.316 713.067,184.599 714.877,184.884 716.687,185.173 
  718.497,185.463 720.306,185.757 722.116,186.054 723.926,186.353 725.736,186.655 727.546,186.96 729.356,187.268 731.165,187.579 732.975,187.893 734.785,188.21 
  736.595,188.53 738.405,188.853 740.214,189.179 742.024,189.508 743.834,189.84 745.644,190.176 747.454,190.514 749.263,190.856 751.073,191.201 752.883,191.549 
  754.693,191.901 756.503,192.256 758.313,192.614 760.122,192.976 761.932,193.341 763.742,193.709 765.552,194.081 767.362,194.457 769.171,194.836 770.981,195.218 
  772.791,195.605 774.601,195.995 776.411,196.388 778.22,196.785 780.03,197.186 781.84,197.591 783.65,197.999 785.46,198.411 787.269,198.828 789.079,199.248 
  790.889,199.672 792.699,200.099 794.509,200.531 796.319,200.967 798.128,201.407 799.938,201.851 801.748,202.299 803.558,202.752 805.368,203.208 807.177,203.669 
  808.987,204.134 810.797,204.604 812.607,205.077 814.417,205.555 816.226,206.038 818.036,206.525 819.846,207.016 821.656,207.512 823.466,208.013 825.276,208.518 
  827.085,209.028 828.895,209.542 830.705,210.061 832.515,210.585 834.325,211.114 836.134,211.648 837.944,212.186 839.754,212.729 841.564,213.278 843.374,213.831 
  845.183,214.389 846.993,214.953 848.803,215.521 850.613,216.095 852.423,216.674 854.233,217.258 856.042,217.847 857.852,218.442 859.662,219.042 861.472,219.648 
  863.282,220.259 865.091,220.875 866.901,221.497 868.711,222.125 870.521,222.758 872.331,223.397 874.14,224.042 875.95,224.692 877.76,225.348 879.57,226.01 
  881.38,226.678 883.189,227.352 884.999,228.032 886.809,228.718 888.619,229.41 890.429,230.108 892.239,230.812 894.048,231.523 895.858,232.239 897.668,232.962 
  899.478,233.692 901.288,234.428 903.097,235.17 904.907,235.919 906.717,236.674 908.527,237.436 910.337,238.204 912.146,238.979 913.956,239.761 915.766,240.55 
  917.576,241.346 919.386,242.148 921.196,242.958 923.005,243.774 924.815,244.597 926.625,245.428 928.435,246.266 930.245,247.11 932.054,247.962 933.864,248.822 
  935.674,249.688 937.484,250.562 939.294,251.444 941.103,252.333 942.913,253.229 944.723,254.134 946.533,255.045 948.343,255.965 950.152,256.892 951.962,257.827 
  953.772,258.77 955.582,259.72 957.392,260.679 959.202,261.645 961.011,262.62 962.821,263.603 964.631,264.594 966.441,265.593 968.251,266.6 970.06,267.616 
  971.87,268.64 973.68,269.672 975.49,270.713 977.3,271.763 979.109,272.821 980.919,273.887 982.729,274.962 984.539,276.046 986.349,277.139 988.159,278.241 
  989.968,279.351 991.778,280.47 993.588,281.599 995.398,282.736 997.208,283.883 999.017,285.038 1000.83,286.203 1002.64,287.377 1004.45,288.56 1006.26,289.753 
  1008.07,290.955 1009.88,292.166 1011.69,293.387 1013.5,294.617 1015.31,295.857 1017.12,297.107 1018.93,298.366 1020.74,299.635 1022.54,300.914 1024.35,302.203 
  1026.16,303.502 1027.97,304.81 1029.78,306.128 1031.59,307.457 1033.4,308.796 1035.21,310.144 1037.02,311.503 1038.83,312.872 1040.64,314.251 1042.45,315.641 
  1044.26,317.041 1046.07,318.451 1047.88,319.872 1049.69,321.303 1051.5,322.745 1053.31,324.198 1055.12,325.661 1056.93,327.134 1058.74,328.619 1060.55,330.114 
  1062.36,331.62 1064.17,333.136 1065.98,334.664 1067.79,336.202 1069.6,337.752 1071.41,339.312 1073.22,340.884 1075.03,342.466 1076.84,344.06 1078.65,345.664 
  1080.46,347.28 1082.27,348.907 1084.08,350.546 1085.89,352.195 1087.7,353.856 1089.51,355.528 1091.32,357.212 1093.13,358.907 1094.94,360.614 1096.75,362.332 
  1098.56,364.061 1100.37,365.802 1102.18,367.554 1103.99,369.319 1105.8,371.094 1107.61,372.882 1109.42,374.68 1111.23,376.491 1113.04,378.313 1114.85,380.148 
  1116.66,381.993 1118.46,383.851 1120.27,385.72 1122.08,387.601 1123.89,389.494 1125.7,391.399 1127.51,393.316 1129.32,395.244 1131.13,397.185 1132.94,399.137 
  1134.75,401.101 1136.56,403.077 1138.37,405.065 1140.18,407.065 1141.99,409.077 1143.8,411.1 1145.61,413.136 1147.42,415.184 1149.23,417.243 1151.04,419.315 
  1152.85,421.398 1154.66,423.494 1156.47,425.601 1158.28,427.72 1160.09,429.852 1161.9,431.995 1163.71,434.15 1165.52,436.317 1167.33,438.496 1169.14,440.687 
  1170.95,442.889 1172.76,445.104 1174.57,447.33 1176.38,449.568 1178.19,451.818 1180,454.08 1181.81,456.354 1183.62,458.639 1185.43,460.936 1187.24,463.245 
  1189.05,465.565 1190.86,467.897 1192.67,470.241 1194.48,472.596 1196.29,474.963 1198.1,477.341 1199.91,479.731 1201.72,482.132 1203.53,484.545 1205.34,486.969 
  1207.15,489.404 1208.96,491.851 1210.77,494.308 1212.58,496.778 1214.38,499.258 1216.19,501.749 1218,504.251 1219.81,506.765 1221.62,509.289 1223.43,511.824 
  1225.24,514.37 1227.05,516.926 1228.86,519.494 1230.67,522.072 1232.48,524.66 1234.29,527.26 1236.1,529.869 1237.91,532.489 1239.72,535.119 1241.53,537.76 
  1243.34,540.411 1245.15,543.071 1246.96,545.742 1248.77,548.423 1250.58,551.113 1252.39,553.814 1254.2,556.524 1256.01,559.243 1257.82,561.973 1259.63,564.711 
  1261.44,567.459 1263.25,570.216 1265.06,572.983 1266.87,575.758 1268.68,578.543 1270.49,581.336 1272.3,584.138 1274.11,586.949 1275.92,589.768 1277.73,592.596 
  1279.54,595.432 1281.35,598.277 1283.16,601.129 1284.97,603.99 1286.78,606.859 1288.59,609.735 1290.4,612.62 1292.21,615.511 1294.02,618.411 1295.83,621.318 
  1297.64,624.232 1299.45,627.153 1301.26,630.081 1303.07,633.016 1304.88,635.958 1306.69,638.906 1308.5,641.861 1310.3,644.823 1312.11,647.791 1313.92,650.765 
  1315.73,653.744 1317.54,656.73 1319.35,659.722 1321.16,662.719 1322.97,665.722 1324.78,668.73 1326.59,671.743 1328.4,674.761 1330.21,677.784 1332.02,680.812 
  1333.83,683.845 1335.64,686.882 1337.45,689.924 1339.26,692.97 1341.07,696.02 1342.88,699.074 1344.69,702.131 1346.5,705.193 1348.31,708.257 1350.12,711.326 
  1351.93,714.397 1353.74,717.471 1355.55,720.549 1357.36,723.629 1359.17,726.712 1360.98,729.797 1362.79,732.884 1364.6,735.974 1366.41,739.066 1368.22,742.159 
  1370.03,745.255 1371.84,748.351 1373.65,751.45 1375.46,754.549 1377.27,757.649 1379.08,760.751 1380.89,763.853 1382.7,766.956 1384.51,770.059 1386.32,773.163 
  1388.13,776.267 1389.94,779.37 1391.75,782.474 1393.56,785.577 1395.37,788.68 1397.18,791.782 1398.99,794.884 1400.8,797.984 1402.61,801.084 1404.42,804.182 
  1406.22,807.279 1408.03,810.374 1409.84,813.467 1411.65,816.559 1413.46,819.649 1415.27,822.736 1417.08,825.822 1418.89,828.904 1420.7,831.984 1422.51,835.062 
  1424.32,838.136 1426.13,841.208 1427.94,844.276 1429.75,847.341 1431.56,850.402 1433.37,853.46 1435.18,856.514 1436.99,859.563 1438.8,862.609 1440.61,865.651 
  1442.42,868.688 1444.23,871.721 1446.04,874.749 1447.85,877.772 1449.66,880.79 1451.47,883.804 1453.28,886.812 1455.09,889.814 1456.9,892.811 1458.71,895.803 
  1460.52,898.789 1462.33,901.769 1464.14,904.743 1465.95,907.71 1467.76,910.672 1469.57,913.627 1471.38,916.575 1473.19,919.517 1475,922.452 1476.81,925.38 
  1478.62,928.302 1480.43,931.216 1482.24,934.122 1484.05,937.022 1485.86,939.914 1487.67,942.798 1489.48,945.674 1491.29,948.543 1493.1,951.404 1494.91,954.257 
  1496.72,957.101 1498.53,959.937 1500.33,962.765 1502.14,965.584 1503.95,968.395 1505.76,971.197 1507.57,973.991 1509.38,976.775 1511.19,979.551 1513,982.317 
  1514.81,985.074 1516.62,987.822 1518.43,990.561 1520.24,993.29 1522.05,996.01 1523.86,998.72 1525.67,1001.42 1527.48,1004.11 1529.29,1006.79 1531.1,1009.46 
  1532.91,1012.12 1534.72,1014.77 1536.53,1017.41 1538.34,1020.04 1540.15,1022.66 1541.96,1025.27 1543.77,1027.87 1545.58,1030.46 1547.39,1033.04 1549.2,1035.61 
  1551.01,1038.16 1552.82,1040.71 1554.63,1043.24 1556.44,1045.77 1558.25,1048.28 1560.06,1050.78 1561.87,1053.28 1563.68,1055.76 1565.49,1058.22 1567.3,1060.68 
  1569.11,1063.13 1570.92,1065.56 1572.73,1067.99 1574.54,1070.4 1576.35,1072.8 1578.16,1075.19 1579.97,1077.57 1581.78,1079.94 1583.59,1082.29 1585.4,1084.64 
  1587.21,1086.97 1589.02,1089.29 1590.83,1091.6 1592.64,1093.89 1594.45,1096.18 1596.25,1098.45 1598.06,1100.71 1599.87,1102.96 1601.68,1105.2 1603.49,1107.43 
  1605.3,1109.64 1607.11,1111.85 1608.92,1114.04 1610.73,1116.22 1612.54,1118.38 1614.35,1120.54 1616.16,1122.68 1617.97,1124.81 1619.78,1126.93 1621.59,1129.04 
  1623.4,1131.13 1625.21,1133.22 1627.02,1135.29 1628.83,1137.35 1630.64,1139.4 1632.45,1141.43 1634.26,1143.46 1636.07,1145.47 1637.88,1147.47 1639.69,1149.46 
  1641.5,1151.43 1643.31,1153.4 1645.12,1155.35 1646.93,1157.29 1648.74,1159.22 1650.55,1161.13 1652.36,1163.04 1654.17,1164.93 1655.98,1166.81 1657.79,1168.68 
  1659.6,1170.54 1661.41,1172.39 1663.22,1174.22 1665.03,1176.04 1666.84,1177.85 1668.65,1179.65 1670.46,1181.44 1672.27,1183.21 1674.08,1184.98 1675.89,1186.73 
  1677.7,1188.47 1679.51,1190.2 1681.32,1191.92 1683.13,1193.63 1684.94,1195.32 1686.75,1197 1688.56,1198.68 1690.37,1200.34 1692.17,1201.99 1693.98,1203.63 
  1695.79,1205.25 1697.6,1206.87 1699.41,1208.47 1701.22,1210.07 1703.03,1211.65 1704.84,1213.22 1706.65,1214.78 1708.46,1216.33 1710.27,1217.87 1712.08,1219.4 
  1713.89,1220.91 1715.7,1222.42 1717.51,1223.91 1719.32,1225.4 1721.13,1226.87 1722.94,1228.34 1724.75,1229.79 1726.56,1231.23 1728.37,1232.66 1730.18,1234.08 
  1731.99,1235.49 1733.8,1236.89 1735.61,1238.28 1737.42,1239.66 1739.23,1241.03 1741.04,1242.39 1742.85,1243.74 1744.66,1245.08 1746.47,1246.4 1748.28,1247.72 
  1750.09,1249.03 1751.9,1250.33 1753.71,1251.62 1755.52,1252.9 1757.33,1254.17 1759.14,1255.43 1760.95,1256.68 1762.76,1257.92 1764.57,1259.15 1766.38,1260.37 
  1768.19,1261.58 1770,1262.78 1771.81,1263.97 1773.62,1265.16 1775.43,1266.33 1777.24,1267.5 1779.05,1268.65 1780.86,1269.8 1782.67,1270.93 1784.48,1272.06 
  1786.29,1273.18 1788.09,1274.29 1789.9,1275.39 1791.71,1276.49 1793.52,1277.57 1795.33,1278.65 1797.14,1279.71 1798.95,1280.77 1800.76,1281.82 1802.57,1282.86 
  1804.38,1283.89 1806.19,1284.92 1808,1285.93 1809.81,1286.94 1811.62,1287.94 1813.43,1288.93 1815.24,1289.91 1817.05,1290.89 1818.86,1291.85 1820.67,1292.81 
  1822.48,1293.76 1824.29,1294.71 1826.1,1295.64 1827.91,1296.57 1829.72,1297.49 1831.53,1298.4 1833.34,1299.3 1835.15,1300.2 1836.96,1301.09 1838.77,1301.97 
  1840.58,1302.84 1842.39,1303.71 1844.2,1304.57 1846.01,1305.42 1847.82,1306.27 1849.63,1307.11 1851.44,1307.94 1853.25,1308.76 1855.06,1309.58 1856.87,1310.39 
  1858.68,1311.19 1860.49,1311.98 1862.3,1312.77 1864.11,1313.55 1865.92,1314.33 1867.73,1315.1 1869.54,1315.86 1871.35,1316.61 1873.16,1317.36 1874.97,1318.11 
  1876.78,1318.84 1878.59,1319.57 1880.4,1320.29 1882.21,1321.01 1884.01,1321.72 1885.82,1322.43 1887.63,1323.12 1889.44,1323.82 1891.25,1324.5 1893.06,1325.18 
  1894.87,1325.86 1896.68,1326.52 1898.49,1327.18 1900.3,1327.84 1902.11,1328.49 1903.92,1329.14 1905.73,1329.78 1907.54,1330.41 1909.35,1331.04 1911.16,1331.66 
  1912.97,1332.27 1914.78,1332.89 1916.59,1333.49 1918.4,1334.09 1920.21,1334.69 1922.02,1335.28 1923.83,1335.86 1925.64,1336.44 1927.45,1337.01 1929.26,1337.58 
  1931.07,1338.14 1932.88,1338.7 1934.69,1339.26 1936.5,1339.8 1938.31,1340.35 1940.12,1340.89 1941.93,1341.42 1943.74,1341.95 1945.55,1342.47 1947.36,1342.99 
  1949.17,1343.51 1950.98,1344.02 1952.79,1344.52 1954.6,1345.02 1956.41,1345.52 1958.22,1346.01 1960.03,1346.5 1961.84,1346.98 1963.65,1347.46 1965.46,1347.93 
  1967.27,1348.4 1969.08,1348.86 1970.89,1349.32 1972.7,1349.78 1974.51,1350.23 1976.32,1350.68 1978.13,1351.13 1979.93,1351.57 1981.74,1352 1983.55,1352.43 
  1985.36,1352.86 1987.17,1353.29 1988.98,1353.71 1990.79,1354.12 1992.6,1354.53 1994.41,1354.94 1996.22,1355.35 1998.03,1355.75 1999.84,1356.15 2001.65,1356.54 
  2003.46,1356.93 2005.27,1357.31 2007.08,1357.7 2008.89,1358.08 2010.7,1358.45 2012.51,1358.82 2014.32,1359.19 2016.13,1359.56 2017.94,1359.92 2019.75,1360.28 
  2021.56,1360.63 2023.37,1360.98 2025.18,1361.33 2026.99,1361.68 2028.8,1362.02 2030.61,1362.36 2032.42,1362.69 2034.23,1363.03 2036.04,1363.35 2037.85,1363.68 
  2039.66,1364 2041.47,1364.32 2043.28,1364.64 2045.09,1364.95 2046.9,1365.26 2048.71,1365.57 2050.52,1365.88 2052.33,1366.18 2054.14,1366.48 2055.95,1366.78 
  2057.76,1367.07 2059.57,1367.36 2061.38,1367.65 2063.19,1367.93 2065,1368.22 2066.81,1368.5 2068.62,1368.77 2070.43,1369.05 2072.24,1369.32 2074.05,1369.59 
  2075.85,1369.86 2077.66,1370.12 2079.47,1370.38 2081.28,1370.64 2083.09,1370.9 2084.9,1371.16 2086.71,1371.41 2088.52,1371.66 2090.33,1371.9 2092.14,1372.15 
  2093.95,1372.39 2095.76,1372.63 2097.57,1372.87 2099.38,1373.11 2101.19,1373.34 2103,1373.57 2104.81,1373.8 2106.62,1374.03 2108.43,1374.25 2110.24,1374.47 
  2112.05,1374.69 2113.86,1374.91 2115.67,1375.13 2117.48,1375.34 2119.29,1375.55 2121.1,1375.76 2122.91,1375.97 2124.72,1376.18 2126.53,1376.38 2128.34,1376.58 
  2130.15,1376.78 2131.96,1376.98 2133.77,1377.18 2135.58,1377.37 2137.39,1377.57 2139.2,1377.76 2141.01,1377.94 2142.82,1378.13 2144.63,1378.32 2146.44,1378.5 
  2148.25,1378.68 2150.06,1378.86 2151.87,1379.04 2153.68,1379.22 2155.49,1379.39 2157.3,1379.56 2159.11,1379.73 2160.92,1379.9 2162.73,1380.07 2164.54,1380.24 
  2166.35,1380.4 2168.16,1380.57 2169.97,1380.73 2171.77,1380.89 2173.58,1381.05 2175.39,1381.2 2177.2,1381.36 2179.01,1381.51 2180.82,1381.67 2182.63,1381.82 
  2184.44,1381.97 2186.25,1382.11 2188.06,1382.26 2189.87,1382.41 2191.68,1382.55 2193.49,1382.69 2195.3,1382.83 2197.11,1382.97 2198.92,1383.11 2200.73,1383.25 
  2202.54,1383.38 2204.35,1383.52 2206.16,1383.65 2207.97,1383.78 2209.78,1383.91 2211.59,1384.04 2213.4,1384.17 2215.21,1384.3 2217.02,1384.42 2218.83,1384.55 
  2220.64,1384.67 2222.45,1384.79 2224.26,1384.91 2226.07,1385.03 2227.88,1385.15 2229.69,1385.27 2231.5,1385.38 2233.31,1385.5 2235.12,1385.61 2236.93,1385.72 
  2238.74,1385.83 2240.55,1385.94 2242.36,1386.05 2244.17,1386.16 2245.98,1386.27 2247.79,1386.37 2249.6,1386.48 2251.41,1386.58 2253.22,1386.69 2255.03,1386.79 
  2256.84,1386.89 2258.65,1386.99 2260.46,1387.09 2262.27,1387.19 2264.08,1387.28 2265.88,1387.38 2267.69,1387.48 2269.5,1387.57 2271.31,1387.66 2273.12,1387.76 
  2274.93,1387.85 2276.74,1387.94 2278.55,1388.03 2280.36,1388.12 2282.17,1388.2 2283.98,1388.29 2285.79,1388.38 2287.6,1388.46 2289.41,1388.55 2291.22,1388.63 
  2293.03,1388.71 
  "/>
<polygon clip-path="url(#clip6400)" points="
1989.93,326.155 2280.76,326.155 2280.76,205.195 1989.93,205.195 
  " fill="#ffffff" fill-rule="evenodd" fill-opacity="1"/>
<polyline clip-path="url(#clip6400)" style="stroke:#000000; stroke-width:4; stroke-opacity:1; fill:none" points="
  1989.93,326.155 2280.76,326.155 2280.76,205.195 1989.93,205.195 1989.93,326.155 
  "/>
<polyline clip-path="url(#clip6400)" style="stroke:#009af9; stroke-width:4; stroke-opacity:1; fill:none" points="
  2013.93,265.675 2157.93,265.675 
  "/>
<g clip-path="url(#clip6400)">
<text style="fill:#000000; fill-opacity:1; font-family:Arial,Helvetica Neue,Helvetica,sans-serif; font-size:48px; text-anchor:start;" transform="rotate(0, 2181.93, 283.175)" x="2181.93" y="283.175">y1</text>
</g>
</svg>
